<svg width="1520" height="1184" viewBox="0 0 1520 1184" fill="none" xmlns="http://www.w3.org/2000/svg">
<rect y="282" width="1520" height="665" rx="70" fill="#4D41FA"/>
<path d="M672.31 1004.03C624.9 992.132 584.628 975.961 551.495 955.515C518.362 935.07 496.105 904.754 484.723 864.568C473.342 824.383 476.353 769.61 493.756 700.25L590.246 315.699C601.26 271.8 620.059 239.654 646.641 219.259C673.443 197.987 706.274 186.16 745.135 183.779C783.996 181.397 827.131 186.154 874.542 198.05C922.83 210.166 962.663 226.227 994.04 246.232C1025.42 266.238 1047.02 291.723 1058.85 322.688C1070.9 352.776 1071.41 389.768 1060.4 433.667L1014.8 615.407L805.402 562.867L853.647 370.591C856.29 360.055 857.395 351.933 856.961 346.225C856.747 339.638 855.104 335.027 852.033 332.389C850.06 329.095 846.879 326.897 842.489 325.795C838.099 324.694 833.818 325.019 829.645 326.772C826.57 327.867 823.384 331.267 820.086 336.972C817.008 341.8 814.148 349.481 811.504 360.017L691.553 838.072C689.13 847.73 688.025 855.852 688.239 862.438C688.453 869.025 689.546 873.965 691.519 877.26C694.591 879.897 698.321 881.766 702.711 882.868C707.101 883.969 710.833 883.973 713.908 882.878C718.08 881.125 721.816 877.396 725.114 871.691C728.412 865.985 731.272 858.304 733.696 848.646L779.297 666.906L988.693 719.447L964.24 816.902C946.617 887.139 924.18 937.504 896.931 967.997C869.682 998.49 837.505 1015.15 800.4 1017.97C763.295 1020.79 720.599 1016.14 672.31 1004.03Z" fill="#222222"/>
</svg>
