<svg width="1520" height="560" viewBox="0 0 1520 560" fill="none" xmlns="http://www.w3.org/2000/svg">
<path d="M633.46 0C615.159 20.4937 597.646 44.8184 584.034 72.5127C555.31 130.953 544.074 204.636 579.742 285.358C603.853 339.925 645.664 370.629 695.448 384.365C743.142 397.525 797.491 395.051 850.394 387.26C903.676 379.413 959.81 365.428 1011.6 352.809C1064.49 339.921 1112.39 328.583 1153 324.289C1192.57 320.104 1238.92 339.441 1277.19 378.128C1315.06 416.418 1340.31 469.235 1340.88 523.026C1341 535.124 1339.89 547.499 1337.28 560H70C31.3401 560 0 528.66 0 490V70C0 31.3401 31.3401 0 70 0H633.46ZM1450 0C1488.66 2.57704e-06 1520 31.3401 1520 70V490C1520 528.66 1488.66 560 1450 560H1414.41C1416.2 547.422 1417.01 534.806 1416.87 522.224C1416.07 445.765 1380.76 374.77 1331.22 324.685C1282.08 274.997 1214.18 241.396 1145 248.711C1098.42 253.638 1045.41 266.347 993.608 278.969C940.707 291.859 888.365 304.847 839.32 312.07C789.896 319.349 748.066 320.043 715.663 311.103C685.351 302.739 663.147 286.074 649.258 254.642C624.126 197.764 631.723 147.78 652.24 106.037C673.377 63.0336 708.298 29.1514 735.159 9.87012C739.019 7.09978 742.202 3.73824 744.679 0H1450Z" fill="#1A1919"/>
</svg>
